<svg width="201" height="140" viewBox="0 0 201 140" fill="none" xmlns="http://www.w3.org/2000/svg">
<g filter="url(#filter0_d_694_1900)">
<path d="M83.1538 45.666C72.9097 47.5407 65.56 47.1449 64.4875 44.1361C62.7967 39.3931 77.3452 29.9528 96.9825 23.0506C116.62 16.1484 133.91 14.3981 135.6 19.1411C136.68 22.1683 131.144 27.109 121.891 32.082" stroke="#364D9D" stroke-width="2"/>
<ellipse cx="99.4646" cy="30.8595" rx="22.9368" ry="22.7755" fill="#364D9D"/>
<path fill-rule="evenodd" clip-rule="evenodd" d="M88.7606 23.912C88.7606 22.9972 89.5074 22.2556 90.4287 22.2556H108.778C109.699 22.2556 110.446 22.9972 110.446 23.912V38.8196C110.446 39.7344 109.699 40.476 108.778 40.476H90.4287C89.5074 40.476 88.7606 39.7344 88.7606 38.8196V23.912ZM108.778 23.912H90.4287V38.8196H108.778V23.912Z" fill="#EDECEE"/>
<path fill-rule="evenodd" clip-rule="evenodd" d="M88.7606 26.3966C88.7606 25.9392 89.134 25.5684 89.5946 25.5684H109.612C110.073 25.5684 110.446 25.9392 110.446 26.3966C110.446 26.854 110.073 27.2248 109.612 27.2248H89.5946C89.134 27.2248 88.7606 26.854 88.7606 26.3966Z" fill="#EDECEE"/>
<path fill-rule="evenodd" clip-rule="evenodd" d="M95.4331 28.8811C95.8937 28.8811 96.2671 29.2519 96.2671 29.7093C96.2671 30.5879 96.6186 31.4305 97.2443 32.0518C97.87 32.6731 98.7186 33.0221 99.6034 33.0221C100.488 33.0221 101.337 32.6731 101.962 32.0518C102.588 31.4305 102.94 30.5879 102.94 29.7093C102.94 29.2519 103.313 28.8811 103.774 28.8811C104.234 28.8811 104.608 29.2519 104.608 29.7093C104.608 31.0272 104.081 32.2912 103.142 33.2231C102.204 34.155 100.931 34.6785 99.6034 34.6785C98.2761 34.6785 97.0033 34.155 96.0648 33.2231C95.1262 32.2912 94.599 31.0272 94.599 29.7093C94.599 29.2519 94.9724 28.8811 95.4331 28.8811Z" fill="#EDECEE"/>
<path d="M83.1537 45.666C84.882 45.3497 86.6928 44.9688 88.5697 44.5249M121.891 32.082C120.148 33.0191 118.273 33.9573 116.285 34.8841" stroke="#F7F7F8" stroke-width="2"/>
<path d="M4.56531 107.061C4.18844 107.061 4 106.872 4 106.496V90.9494C4 90.5934 4.14656 90.4155 4.43969 90.4155H7.54892C7.84205 90.4155 7.98861 90.5725 7.98861 90.8866V92.5197C7.98861 92.6453 8.02002 92.7291 8.08283 92.771C8.14564 92.7919 8.22939 92.75 8.33408 92.6453C8.92033 92.1219 9.48565 91.6717 10.03 91.2949C10.5953 90.918 11.1711 90.6249 11.7574 90.4155C12.3646 90.1852 13.0032 90.07 13.6732 90.07C14.8457 90.07 15.8088 90.3422 16.5625 90.8866C17.3163 91.4309 17.8397 92.1219 18.1329 92.9594C18.1747 93.0431 18.2376 93.0745 18.3213 93.0536C18.4051 93.0327 18.4888 92.9803 18.5726 92.8966C19.1169 92.3522 19.6927 91.8706 20.2999 91.4519C20.9071 91.0331 21.5352 90.7086 22.1843 90.4783C22.8334 90.227 23.4824 90.1014 24.1315 90.1014C25.6181 90.1014 26.7906 90.5516 27.649 91.4519C28.5074 92.3313 28.9367 93.5352 28.9367 95.0636V106.401C28.9367 106.841 28.7168 107.061 28.2771 107.061H25.3877C25.1993 107.061 25.0632 107.019 24.9795 106.935C24.8957 106.851 24.8538 106.705 24.8538 106.496V95.6917C24.8538 94.8752 24.6445 94.2471 24.2257 93.8074C23.8279 93.3467 23.2207 93.1164 22.4041 93.1164C21.9226 93.1164 21.4619 93.2106 21.0223 93.3991C20.5826 93.5666 20.1848 93.7864 19.8288 94.0586C19.4729 94.3308 19.1588 94.603 18.8866 94.8752C18.7401 95.0217 18.6354 95.1683 18.5726 95.3149C18.5307 95.4405 18.5097 95.5975 18.5097 95.786V106.401C18.5097 106.841 18.2899 107.061 17.8502 107.061H14.9608C14.7933 107.061 14.6572 107.019 14.5525 106.935C14.4688 106.851 14.4269 106.705 14.4269 106.496V95.6917C14.4269 94.8752 14.228 94.2471 13.8302 93.8074C13.4324 93.3467 12.8147 93.1164 11.9772 93.1164C11.2653 93.1164 10.6058 93.2944 9.99862 93.6503C9.41237 94.0063 8.77377 94.5402 8.08283 95.2521V106.433C8.08283 106.851 7.84205 107.061 7.36048 107.061H4.56531Z" fill="#1A181B"/>
<path d="M41.878 105.334C41.1662 105.962 40.3915 106.464 39.554 106.841C38.7165 107.197 37.7638 107.375 36.696 107.375C35.0838 107.375 33.8171 106.956 32.8958 106.119C31.9955 105.26 31.5454 104.151 31.5454 102.79C31.5454 101.638 31.8908 100.643 32.5818 99.806C33.2727 98.9475 34.2777 98.2775 35.5968 97.796C36.9158 97.3144 38.4966 97.0318 40.3391 96.948L41.9095 96.8538C42.0351 96.8328 42.1502 96.791 42.2549 96.7282C42.3596 96.6653 42.412 96.5502 42.412 96.3827V95.6603C42.412 94.7391 42.1398 94.0272 41.5954 93.5247C41.051 93.0013 40.2973 92.7395 39.3341 92.7395C38.6013 92.7395 37.9104 92.907 37.2613 93.242C36.6332 93.5561 36.0888 94.0796 35.6282 94.8124C35.5654 94.938 35.4921 95.0217 35.4083 95.0636C35.3455 95.1055 35.2199 95.1055 35.0315 95.0636L32.3933 94.4041C32.2886 94.3622 32.2049 94.2994 32.1421 94.2156C32.1002 94.1319 32.1421 93.9644 32.2677 93.7131C32.833 92.5197 33.7229 91.6194 34.9372 91.0122C36.1726 90.405 37.701 90.1014 39.5226 90.1014C41.1348 90.1014 42.4329 90.3213 43.417 90.7609C44.422 91.2006 45.1548 91.8183 45.6154 92.6139C46.076 93.3886 46.3063 94.3099 46.3063 95.3777V106.433C46.3063 106.663 46.2645 106.831 46.1807 106.935C46.1179 107.019 45.9818 107.061 45.7724 107.061H43.1029C42.9145 107.061 42.7784 106.988 42.6946 106.841C42.6109 106.694 42.5585 106.516 42.5376 106.307L42.4748 105.365C42.4329 105.009 42.234 104.999 41.878 105.334ZM42.412 99.4605C42.412 99.0836 42.2549 98.9057 41.9409 98.9266L40.6532 99.0208C39.9832 99.0627 39.3341 99.1674 38.706 99.3349C38.0988 99.4814 37.5544 99.6908 37.0729 99.963C36.6122 100.214 36.2354 100.539 35.9422 100.937C35.6701 101.313 35.534 101.764 35.534 102.287C35.534 102.999 35.7852 103.564 36.2877 103.983C36.8111 104.402 37.5126 104.611 38.3919 104.611C38.9573 104.611 39.4807 104.517 39.9623 104.328C40.4438 104.14 40.8626 103.899 41.2185 103.606C41.5745 103.313 41.8571 103.009 42.0665 102.695C42.2968 102.36 42.412 102.025 42.412 101.69V99.4605Z" fill="#1A181B"/>
<path d="M50.7854 107.061C50.5761 107.061 50.4295 107.019 50.3457 106.935C50.262 106.831 50.2201 106.684 50.2201 106.496V90.9494C50.2201 90.5934 50.3667 90.4155 50.6598 90.4155H53.7062C53.9994 90.4155 54.1459 90.5725 54.1459 90.8866V92.8024C54.1459 92.928 54.1878 93.0117 54.2715 93.0536C54.3553 93.0745 54.4495 93.0222 54.5542 92.8966C55.0148 92.2894 55.5069 91.7869 56.0303 91.3891C56.5747 90.9703 57.119 90.6563 57.6634 90.4469C58.2287 90.2166 58.7731 90.1014 59.2966 90.1014C60.0503 90.1014 60.4272 90.2689 60.4272 90.6039V93.6189C60.4272 93.9121 60.2911 94.0377 60.0189 93.9958C59.7048 93.9121 59.3698 93.8597 59.0139 93.8388C58.6789 93.7969 58.3648 93.776 58.0717 93.776C57.6739 93.776 57.2447 93.8597 56.784 94.0272C56.3444 94.1947 55.9361 94.4355 55.5592 94.7496C55.1823 95.0427 54.8787 95.3672 54.6484 95.7232C54.4181 96.0791 54.3029 96.4455 54.3029 96.8224V106.433C54.3029 106.851 54.0622 107.061 53.5806 107.061H50.7854Z" fill="#1A181B"/>
<path d="M78.9297 106.401C79.0344 106.548 79.0553 106.694 78.9925 106.841C78.9297 106.988 78.7831 107.061 78.5528 107.061H75.0981C74.9097 107.061 74.7527 107.019 74.627 106.935C74.5223 106.831 74.4281 106.684 74.3444 106.496L70.5756 99.4605C70.5128 99.3139 70.45 99.2302 70.3872 99.2093C70.3244 99.1883 70.2301 99.2407 70.1045 99.3663L67.4978 101.942C67.414 102.025 67.3408 102.12 67.2779 102.224C67.2361 102.329 67.2151 102.476 67.2151 102.664V106.37C67.2151 106.621 67.1628 106.799 67.0581 106.904C66.9534 107.009 66.765 107.061 66.4928 107.061H63.7604C63.5092 107.061 63.3417 107.019 63.2579 106.935C63.1742 106.831 63.1323 106.684 63.1323 106.496V84.2912C63.1323 83.9353 63.2893 83.7573 63.6034 83.7573H66.7755C67.0686 83.7573 67.2151 83.9248 67.2151 84.2598V97.7332C67.2151 97.8588 67.2465 97.9425 67.3094 97.9844C67.3722 98.0263 67.4664 97.9739 67.592 97.8274L74.1245 90.8552C74.4177 90.562 74.6794 90.4155 74.9097 90.4155H77.7677C78.0399 90.4155 78.1969 90.4888 78.2388 90.6353C78.3016 90.7819 78.2388 90.9494 78.0503 91.1378L73.4336 95.786C73.3499 95.8907 73.2975 95.9953 73.2766 96.1C73.2556 96.2047 73.2975 96.3617 73.4022 96.5711L78.9297 106.401Z" fill="#1A181B"/>
<path d="M83.9143 100.026C83.9143 100.884 84.1132 101.659 84.511 102.35C84.9088 103.02 85.4532 103.554 86.1441 103.952C86.856 104.328 87.6307 104.517 88.4682 104.517C89.3266 104.517 90.1013 104.339 90.7922 103.983C91.5041 103.627 92.1741 103.051 92.8023 102.256C92.886 102.151 92.9593 102.099 93.0221 102.099C93.0849 102.078 93.1896 102.109 93.3362 102.193L95.252 103.041C95.5241 103.166 95.5555 103.355 95.3462 103.606C94.718 104.527 94.0376 105.271 93.3048 105.836C92.5929 106.38 91.7972 106.778 90.9179 107.029C90.0594 107.26 89.0858 107.375 87.9971 107.375C86.4058 107.375 84.9821 107.019 83.7258 106.307C82.4696 105.595 81.475 104.611 80.7422 103.355C80.0303 102.078 79.6744 100.612 79.6744 98.958C79.6744 97.1364 80.0408 95.5661 80.7736 94.2471C81.5274 92.928 82.5324 91.9125 83.7886 91.2006C85.0449 90.4678 86.4268 90.1014 87.9343 90.1014C89.5255 90.1014 90.9074 90.4469 92.0799 91.1378C93.2733 91.8288 94.2051 92.8233 94.8751 94.1214C95.5451 95.3986 95.8801 96.9585 95.8801 98.801C95.8801 99.0104 95.8591 99.1779 95.8173 99.3035C95.7963 99.4291 95.6498 99.5024 95.3776 99.5233H84.2597C84.1341 99.5233 84.0399 99.5652 83.9771 99.6489C83.9352 99.7327 83.9143 99.8583 83.9143 100.026ZM91.3576 97.1993C91.5669 97.1993 91.703 97.1783 91.7658 97.1364C91.8496 97.0736 91.8915 96.948 91.8915 96.7596C91.8915 96.1105 91.7449 95.4719 91.4518 94.8438C91.1587 94.2156 90.7294 93.7027 90.1641 93.3049C89.5988 92.8861 88.9079 92.6767 88.0913 92.6767C87.2538 92.6767 86.521 92.8861 85.8928 93.3049C85.2647 93.7027 84.7832 94.2471 84.4482 94.938C84.1341 95.608 83.9771 96.3617 83.9771 97.1993H91.3576Z" fill="#1A181B"/>
<path d="M104.557 93.2735C104.348 93.2735 104.243 93.3886 104.243 93.6189V102.004C104.243 102.821 104.411 103.386 104.746 103.7C105.081 104.014 105.604 104.171 106.316 104.171H108.169C108.295 104.171 108.399 104.213 108.483 104.297C108.567 104.381 108.609 104.486 108.609 104.611L108.577 106.244C108.577 106.579 108.378 106.789 107.981 106.872C107.667 106.914 107.3 106.956 106.881 106.998C106.463 107.019 106.044 107.04 105.625 107.061C105.227 107.061 104.861 107.061 104.526 107.061C103.123 107.061 102.045 106.736 101.291 106.087C100.537 105.417 100.16 104.412 100.16 103.072V93.6817C100.16 93.4096 100.035 93.2735 99.7835 93.2735H97.6793C97.3443 93.2735 97.1768 93.1164 97.1768 92.8024V90.8238C97.1768 90.5516 97.3338 90.4155 97.6479 90.4155H99.972C100.16 90.4155 100.255 90.3108 100.255 90.1014L100.663 85.2648C100.684 84.9298 100.83 84.7623 101.103 84.7623H103.898C104.191 84.7623 104.337 84.9403 104.337 85.2962V90.1014C104.337 90.2899 104.432 90.3841 104.62 90.3841H108.169C108.483 90.3841 108.64 90.5306 108.64 90.8238V92.8024C108.64 93.1164 108.462 93.2735 108.106 93.2735H104.557Z" fill="#1A181B"/>
<path d="M121.736 94.5297C121.339 94.0063 120.815 93.5666 120.166 93.2106C119.517 92.8547 118.721 92.6767 117.779 92.6767C116.879 92.6767 116.125 92.8547 115.518 93.2106C114.911 93.5666 114.607 94.0691 114.607 94.7181C114.607 95.0322 114.733 95.3358 114.984 95.6289C115.235 95.9221 115.79 96.1838 116.649 96.4141L120.386 97.4191C122.019 97.8169 123.181 98.445 123.872 99.3035C124.584 100.141 124.94 101.094 124.94 102.161C124.94 103.25 124.626 104.182 123.998 104.957C123.39 105.731 122.532 106.328 121.422 106.747C120.334 107.166 119.088 107.375 117.685 107.375C115.884 107.375 114.345 107.05 113.068 106.401C111.791 105.731 110.891 104.904 110.367 103.92C110.304 103.795 110.273 103.679 110.273 103.575C110.273 103.449 110.325 103.344 110.43 103.261L112.283 102.318C112.451 102.214 112.587 102.172 112.691 102.193C112.796 102.214 112.88 102.266 112.943 102.35C113.257 102.79 113.613 103.187 114.01 103.543C114.429 103.899 114.932 104.182 115.518 104.391C116.125 104.601 116.858 104.695 117.716 104.674C118.365 104.674 118.952 104.59 119.475 104.423C120.019 104.255 120.449 104.025 120.763 103.732C121.077 103.418 121.234 103.041 121.234 102.601C121.234 102.182 121.056 101.816 120.7 101.502C120.344 101.188 119.705 100.916 118.784 100.685L115.581 99.9316C113.989 99.5547 112.817 98.9894 112.063 98.2357C111.33 97.4819 110.964 96.5397 110.964 95.4091C110.964 94.3622 111.236 93.441 111.781 92.6453C112.346 91.8497 113.141 91.232 114.167 90.7924C115.193 90.3317 116.408 90.1014 117.811 90.1014C119.36 90.1014 120.7 90.3841 121.831 90.9494C122.961 91.5147 123.788 92.2161 124.312 93.0536C124.395 93.1583 124.448 93.2735 124.469 93.3991C124.511 93.5247 124.458 93.6294 124.312 93.7131L122.364 94.6867C122.239 94.7496 122.124 94.7705 122.019 94.7496C121.914 94.7077 121.82 94.6344 121.736 94.5297Z" fill="#1A181B"/>
<path d="M131.517 90.4155C131.915 90.4155 132.113 90.6039 132.113 90.9808V92.0486C132.113 92.1952 132.155 92.2789 132.239 92.2999C132.323 92.2999 132.417 92.2475 132.522 92.1428C132.836 91.8497 133.192 91.5461 133.59 91.232C134.008 90.918 134.511 90.6563 135.097 90.4469C135.683 90.2166 136.395 90.1014 137.233 90.1014C138.489 90.1014 139.609 90.4155 140.593 91.0436C141.577 91.6508 142.362 92.5825 142.949 93.8388C143.535 95.0741 143.828 96.6444 143.828 98.5497C143.828 100.518 143.535 102.161 142.949 103.481C142.362 104.779 141.546 105.752 140.499 106.401C139.473 107.05 138.29 107.375 136.95 107.375C136.092 107.375 135.306 107.239 134.595 106.967C133.883 106.694 133.244 106.297 132.679 105.773C132.469 105.585 132.323 105.501 132.239 105.522C132.155 105.543 132.113 105.689 132.113 105.962V111.74C132.113 112.075 131.967 112.243 131.674 112.243H128.47C128.177 112.243 128.031 112.075 128.031 111.74V91.0436C128.031 90.8133 128.073 90.6563 128.156 90.5725C128.24 90.4678 128.408 90.4155 128.659 90.4155H131.517ZM132.113 102.978C132.595 103.501 133.108 103.92 133.652 104.234C134.218 104.548 134.846 104.705 135.537 104.705C136.374 104.705 137.097 104.496 137.704 104.077C138.332 103.638 138.813 102.968 139.148 102.067C139.504 101.146 139.682 99.963 139.682 98.5183C139.682 97.0946 139.504 95.9639 139.148 95.1264C138.813 94.2889 138.332 93.6922 137.704 93.3363C137.097 92.9594 136.416 92.771 135.662 92.771C134.971 92.771 134.354 92.9175 133.809 93.2106C133.286 93.4828 132.867 93.8388 132.553 94.2785C132.26 94.7181 132.113 95.1788 132.113 95.6603V102.978Z" fill="#1A181B"/>
<path d="M156.217 105.334C155.505 105.962 154.73 106.464 153.893 106.841C153.055 107.197 152.103 107.375 151.035 107.375C149.423 107.375 148.156 106.956 147.235 106.119C146.334 105.26 145.884 104.151 145.884 102.79C145.884 101.638 146.23 100.643 146.921 99.806C147.612 98.9475 148.617 98.2775 149.936 97.796C151.255 97.3144 152.835 97.0318 154.678 96.948L156.248 96.8538C156.374 96.8328 156.489 96.791 156.594 96.7282C156.698 96.6653 156.751 96.5502 156.751 96.3827V95.6603C156.751 94.7391 156.479 94.0272 155.934 93.5247C155.39 93.0013 154.636 92.7395 153.673 92.7395C152.94 92.7395 152.249 92.907 151.6 93.242C150.972 93.5561 150.428 94.0796 149.967 94.8124C149.904 94.938 149.831 95.0217 149.747 95.0636C149.684 95.1055 149.559 95.1055 149.37 95.0636L146.732 94.4041C146.627 94.3622 146.544 94.2994 146.481 94.2156C146.439 94.1319 146.481 93.9644 146.607 93.7131C147.172 92.5197 148.062 91.6194 149.276 91.0122C150.511 90.405 152.04 90.1014 153.861 90.1014C155.474 90.1014 156.772 90.3213 157.756 90.7609C158.761 91.2006 159.494 91.8183 159.954 92.6139C160.415 93.3886 160.645 94.3099 160.645 95.3777V106.433C160.645 106.663 160.603 106.831 160.52 106.935C160.457 107.019 160.321 107.061 160.111 107.061H157.442C157.253 107.061 157.117 106.988 157.033 106.841C156.95 106.694 156.897 106.516 156.876 106.307L156.814 105.365C156.772 105.009 156.573 104.999 156.217 105.334ZM156.751 99.4605C156.751 99.0836 156.594 98.9057 156.28 98.9266L154.992 99.0208C154.322 99.0627 153.673 99.1674 153.045 99.3349C152.438 99.4814 151.893 99.6908 151.412 99.963C150.951 100.214 150.574 100.539 150.281 100.937C150.009 101.313 149.873 101.764 149.873 102.287C149.873 102.999 150.124 103.564 150.627 103.983C151.15 104.402 151.851 104.611 152.731 104.611C153.296 104.611 153.82 104.517 154.301 104.328C154.783 104.14 155.201 103.899 155.557 103.606C155.913 103.313 156.196 103.009 156.405 102.695C156.636 102.36 156.751 102.025 156.751 101.69V99.4605Z" fill="#1A181B"/>
<path d="M171.908 90.1014C173.164 90.1014 174.253 90.3213 175.174 90.7609C176.096 91.1797 176.849 91.7345 177.436 92.4255C178.043 93.0955 178.503 93.8074 178.817 94.5611C178.943 94.938 178.838 95.1369 178.503 95.1578L175.74 95.5033C175.53 95.5452 175.384 95.451 175.3 95.2207C175.028 94.76 174.745 94.3517 174.452 93.9958C174.159 93.6399 173.824 93.3572 173.447 93.1478C173.07 92.9385 172.609 92.8338 172.065 92.8338C171.228 92.8338 170.484 93.0641 169.835 93.5247C169.207 93.9644 168.715 94.6239 168.359 95.5033C168.024 96.3827 167.857 97.461 167.857 98.7382C167.857 100.036 168.035 101.125 168.391 102.004C168.767 102.884 169.28 103.554 169.929 104.014C170.579 104.454 171.353 104.674 172.254 104.674C173.196 104.674 173.97 104.433 174.578 103.952C175.185 103.449 175.75 102.758 176.274 101.879C176.336 101.795 176.399 101.743 176.462 101.722C176.525 101.701 176.629 101.711 176.776 101.753L178.755 102.287C178.964 102.35 179.027 102.528 178.943 102.821C178.734 103.303 178.43 103.816 178.032 104.36C177.655 104.904 177.184 105.407 176.619 105.867C176.054 106.307 175.373 106.674 174.578 106.967C173.803 107.239 172.913 107.375 171.908 107.375C170.317 107.375 168.903 107.019 167.668 106.307C166.433 105.574 165.459 104.569 164.747 103.292C164.056 101.994 163.711 100.497 163.711 98.801C163.711 97.0841 164.067 95.5766 164.779 94.2785C165.491 92.9594 166.464 91.9335 167.7 91.2006C168.935 90.4678 170.338 90.1014 171.908 90.1014Z" fill="#1A181B"/>
<path d="M185.034 100.026C185.034 100.884 185.233 101.659 185.631 102.35C186.029 103.02 186.573 103.554 187.264 103.952C187.976 104.328 188.751 104.517 189.588 104.517C190.447 104.517 191.221 104.339 191.912 103.983C192.624 103.627 193.294 103.051 193.922 102.256C194.006 102.151 194.079 102.099 194.142 102.099C194.205 102.078 194.31 102.109 194.456 102.193L196.372 103.041C196.644 103.166 196.675 103.355 196.466 103.606C195.838 104.527 195.157 105.271 194.425 105.836C193.713 106.38 192.917 106.778 192.038 107.029C191.179 107.26 190.206 107.375 189.117 107.375C187.526 107.375 186.102 107.019 184.846 106.307C183.589 105.595 182.595 104.611 181.862 103.355C181.15 102.078 180.794 100.612 180.794 98.958C180.794 97.1364 181.161 95.5661 181.894 94.2471C182.647 92.928 183.652 91.9125 184.909 91.2006C186.165 90.4678 187.547 90.1014 189.054 90.1014C190.645 90.1014 192.027 90.4469 193.2 91.1378C194.393 91.8288 195.325 92.8233 195.995 94.1214C196.665 95.3986 197 96.9585 197 98.801C197 99.0104 196.979 99.1779 196.937 99.3035C196.916 99.4291 196.77 99.5024 196.498 99.5233H185.38C185.254 99.5233 185.16 99.5652 185.097 99.6489C185.055 99.7327 185.034 99.8583 185.034 100.026ZM192.477 97.1993C192.687 97.1993 192.823 97.1783 192.886 97.1364C192.97 97.0736 193.011 96.948 193.011 96.7596C193.011 96.1105 192.865 95.4719 192.572 94.8438C192.279 94.2156 191.849 93.7027 191.284 93.3049C190.719 92.8861 190.028 92.6767 189.211 92.6767C188.374 92.6767 187.641 92.8861 187.013 93.3049C186.385 93.7027 185.903 94.2471 185.568 94.938C185.254 95.608 185.097 96.3617 185.097 97.1993H192.477Z" fill="#1A181B"/>
<path d="M8.4342 128.397C7.86953 128.397 7.35153 128.294 6.8802 128.089C6.40886 127.879 6.03086 127.575 5.7462 127.179C5.46153 126.777 5.3192 126.29 5.3192 125.716H6.1032C6.1032 126.154 6.21053 126.516 6.4252 126.801C6.63986 127.085 6.9222 127.298 7.2722 127.438C7.62686 127.573 8.00953 127.641 8.4202 127.641C8.89153 127.641 9.2952 127.564 9.6312 127.41C9.9672 127.251 10.2239 127.046 10.4012 126.794C10.5832 126.542 10.6742 126.273 10.6742 125.989C10.6742 125.578 10.5482 125.244 10.2962 124.988C10.0489 124.726 9.68953 124.523 9.2182 124.379L7.7832 123.917C7.0412 123.66 6.48353 123.371 6.1102 123.049C5.73686 122.727 5.5502 122.272 5.5502 121.684C5.5502 121.03 5.79753 120.496 6.2922 120.081C6.78686 119.665 7.49853 119.458 8.4272 119.458C9.26253 119.458 9.9182 119.649 10.3942 120.032C10.8749 120.414 11.1525 120.916 11.2272 121.537H10.4222C10.3475 121.107 10.1422 120.778 9.8062 120.55C9.47486 120.316 9.0152 120.2 8.4272 120.2C7.79253 120.2 7.3002 120.344 6.9502 120.634C6.60486 120.918 6.4322 121.282 6.4322 121.726C6.4322 122.085 6.54186 122.37 6.7612 122.58C6.98053 122.785 7.32586 122.967 7.7972 123.126L9.5332 123.686C10.1399 123.872 10.6275 124.15 10.9962 124.519C11.3695 124.883 11.5562 125.368 11.5562 125.975C11.5562 126.399 11.4372 126.796 11.1992 127.165C10.9612 127.533 10.6112 127.832 10.1492 128.061C9.6872 128.285 9.11553 128.397 8.4342 128.397ZM16.2447 128.397C15.666 128.397 15.155 128.25 14.7117 127.956C14.273 127.657 13.9277 127.249 13.6757 126.731C13.4237 126.208 13.2977 125.613 13.2977 124.946C13.2977 124.218 13.4213 123.592 13.6687 123.07C13.9207 122.547 14.266 122.146 14.7047 121.866C15.148 121.586 15.6613 121.446 16.2447 121.446C16.7347 121.446 17.15 121.546 17.4907 121.747C17.836 121.943 18.1137 122.211 18.3237 122.552C18.5337 122.892 18.6807 123.277 18.7647 123.707C18.8533 124.136 18.8883 124.579 18.8697 125.037H13.9627V124.477H18.3727L18.0507 124.687C18.0647 124.383 18.046 124.082 17.9947 123.784C17.948 123.48 17.857 123.203 17.7217 122.951C17.591 122.699 17.4067 122.496 17.1687 122.342C16.9307 122.188 16.625 122.111 16.2517 122.111C15.7757 122.111 15.379 122.234 15.0617 122.482C14.7443 122.724 14.5063 123.042 14.3477 123.434C14.1937 123.821 14.1167 124.236 14.1167 124.68V125.023C14.1167 125.531 14.1937 125.989 14.3477 126.395C14.5063 126.801 14.742 127.123 15.0547 127.361C15.372 127.599 15.7687 127.718 16.2447 127.718C16.7347 127.718 17.1337 127.599 17.4417 127.361C17.7543 127.118 17.941 126.763 18.0017 126.297H18.8697C18.7997 126.74 18.6433 127.118 18.4007 127.431C18.1627 127.743 17.8593 127.984 17.4907 128.152C17.122 128.315 16.7067 128.397 16.2447 128.397ZM25.658 121.593H26.47V128.243H25.658V121.593ZM20.87 121.593H21.682V125.765C21.682 126.381 21.8314 126.852 22.13 127.179C22.4334 127.501 22.8697 127.662 23.439 127.662C23.9057 127.662 24.3047 127.536 24.636 127.284C24.9674 127.032 25.2194 126.693 25.392 126.269C25.5694 125.844 25.658 125.375 25.658 124.862H26.043C26.043 125.571 25.9334 126.189 25.714 126.717C25.4947 127.244 25.1844 127.652 24.783 127.942C24.3817 128.226 23.9057 128.369 23.355 128.369C22.8417 128.369 22.3984 128.273 22.025 128.082C21.6564 127.89 21.3717 127.606 21.171 127.228C20.9704 126.845 20.87 126.371 20.87 125.807V121.593ZM34.8521 128.397C34.2734 128.397 33.7624 128.25 33.3191 127.956C32.8804 127.657 32.5351 127.249 32.2831 126.731C32.0311 126.208 31.9051 125.613 31.9051 124.946C31.9051 124.218 32.0288 123.592 32.2761 123.07C32.5281 122.547 32.8734 122.146 33.3121 121.866C33.7554 121.586 34.2688 121.446 34.8521 121.446C35.3421 121.446 35.7574 121.546 36.0981 121.747C36.4434 121.943 36.7211 122.211 36.9311 122.552C37.1411 122.892 37.2881 123.277 37.3721 123.707C37.4608 124.136 37.4958 124.579 37.4771 125.037H32.5701V124.477H36.9801L36.6581 124.687C36.6721 124.383 36.6534 124.082 36.6021 123.784C36.5554 123.48 36.4644 123.203 36.3291 122.951C36.1984 122.699 36.0141 122.496 35.7761 122.342C35.5381 122.188 35.2324 122.111 34.8591 122.111C34.3831 122.111 33.9864 122.234 33.6691 122.482C33.3518 122.724 33.1138 123.042 32.9551 123.434C32.8011 123.821 32.7241 124.236 32.7241 124.68V125.023C32.7241 125.531 32.8011 125.989 32.9551 126.395C33.1138 126.801 33.3494 127.123 33.6621 127.361C33.9794 127.599 34.3761 127.718 34.8521 127.718C35.3421 127.718 35.7411 127.599 36.0491 127.361C36.3618 127.118 36.5484 126.763 36.6091 126.297H37.4771C37.4071 126.74 37.2508 127.118 37.0081 127.431C36.7701 127.743 36.4668 127.984 36.0981 128.152C35.7294 128.315 35.3141 128.397 34.8521 128.397ZM42.0464 128.397C41.4024 128.397 40.8704 128.303 40.4504 128.117C40.0351 127.93 39.7224 127.678 39.5124 127.361C39.3024 127.043 39.1881 126.689 39.1694 126.297H39.9814C40.0094 126.768 40.1984 127.125 40.5484 127.368C40.9031 127.606 41.3861 127.725 41.9974 127.725C42.3148 127.725 42.6088 127.673 42.8794 127.571C43.1501 127.463 43.3671 127.319 43.5304 127.137C43.6984 126.95 43.7824 126.74 43.7824 126.507C43.7824 126.208 43.6728 125.975 43.4534 125.807C43.2341 125.639 42.8864 125.494 42.4104 125.373L41.1994 125.009C40.6161 124.841 40.1704 124.603 39.8624 124.295C39.5544 123.982 39.4004 123.609 39.4004 123.175C39.4004 122.652 39.6268 122.234 40.0794 121.922C40.5321 121.604 41.1224 121.446 41.8504 121.446C42.6438 121.446 43.2621 121.602 43.7054 121.915C44.1488 122.227 44.3821 122.617 44.4054 123.084H43.5654C43.5141 122.752 43.3438 122.507 43.0544 122.349C42.7651 122.185 42.3638 122.104 41.8504 122.104C41.3418 122.104 40.9474 122.22 40.6674 122.454C40.3874 122.687 40.2474 122.941 40.2474 123.217C40.2474 123.749 40.7048 124.138 41.6194 124.386L42.8094 124.757C43.4068 124.925 43.8618 125.149 44.1744 125.429C44.4918 125.709 44.6504 126.068 44.6504 126.507C44.6504 126.829 44.5454 127.134 44.3354 127.424C44.1301 127.713 43.8338 127.949 43.4464 128.131C43.0591 128.308 42.5924 128.397 42.0464 128.397ZM49.8992 128.397C49.4139 128.397 48.9869 128.282 48.6182 128.054C48.2542 127.825 47.9696 127.496 47.7642 127.067C47.5636 126.637 47.4632 126.122 47.4632 125.52H47.8552C47.8552 125.991 47.9486 126.388 48.1352 126.71C48.3266 127.027 48.5716 127.267 48.8702 127.431C49.1736 127.594 49.4932 127.676 49.8292 127.676C50.1979 127.676 50.5456 127.568 50.8722 127.354C51.1989 127.139 51.4649 126.826 51.6702 126.416C51.8756 126 51.9782 125.496 51.9782 124.904C51.9782 124.32 51.8802 123.826 51.6842 123.42C51.4882 123.009 51.2269 122.696 50.9002 122.482C50.5782 122.262 50.2236 122.153 49.8362 122.153C49.5002 122.153 49.1806 122.237 48.8772 122.405C48.5739 122.573 48.3266 122.82 48.1352 123.147C47.9486 123.469 47.8552 123.87 47.8552 124.351H47.4632C47.4632 123.735 47.5682 123.21 47.7782 122.776C47.9929 122.342 48.2846 122.013 48.6532 121.789C49.0219 121.56 49.4396 121.446 49.9062 121.446C50.4242 121.446 50.9049 121.586 51.3482 121.866C51.7916 122.141 52.1486 122.538 52.4192 123.056C52.6899 123.569 52.8252 124.185 52.8252 124.904C52.8252 125.632 52.6876 126.257 52.4122 126.78C52.1416 127.302 51.7822 127.704 51.3342 127.984C50.8909 128.259 50.4126 128.397 49.8992 128.397ZM47.0432 131.519V121.6H47.7292L47.8552 123.112V131.519H47.0432ZM59.108 128.243L59.003 126.864V123.924C59.003 123.256 58.8583 122.783 58.569 122.503C58.2796 122.223 57.8666 122.083 57.33 122.083C57.0313 122.083 56.7536 122.127 56.497 122.216C56.2403 122.3 56.035 122.437 55.881 122.629C55.727 122.815 55.65 123.063 55.65 123.371H54.726C54.726 122.899 54.8426 122.524 55.076 122.244C55.3093 121.959 55.622 121.756 56.014 121.635C56.4106 121.509 56.8493 121.446 57.33 121.446C57.806 121.446 58.2306 121.53 58.604 121.698C58.9773 121.861 59.2713 122.127 59.486 122.496C59.7053 122.86 59.815 123.34 59.815 123.938V128.243H59.108ZM56.798 128.397C56.266 128.397 55.8273 128.301 55.482 128.11C55.1366 127.914 54.88 127.664 54.712 127.361C54.544 127.057 54.46 126.745 54.46 126.423C54.46 125.956 54.572 125.583 54.796 125.303C55.0246 125.023 55.328 124.82 55.706 124.694C56.0886 124.568 56.5063 124.505 56.959 124.505C57.2996 124.505 57.652 124.544 58.016 124.624C58.3846 124.698 58.737 124.803 59.073 124.939V125.485C58.7836 125.359 58.45 125.258 58.072 125.184C57.694 125.109 57.351 125.072 57.043 125.072C56.567 125.072 56.161 125.174 55.825 125.38C55.489 125.585 55.321 125.933 55.321 126.423C55.321 126.791 55.4446 127.104 55.692 127.361C55.944 127.617 56.3476 127.746 56.903 127.746C57.281 127.746 57.6286 127.655 57.946 127.473C58.2633 127.291 58.5176 127.064 58.709 126.794C58.905 126.523 59.003 126.25 59.003 125.975H59.206C59.206 126.399 59.1056 126.796 58.905 127.165C58.709 127.533 58.429 127.832 58.065 128.061C57.7056 128.285 57.2833 128.397 56.798 128.397ZM64.7598 128.397C64.2418 128.397 63.7565 128.254 63.3038 127.97C62.8511 127.685 62.4848 127.281 62.2048 126.759C61.9295 126.236 61.7918 125.618 61.7918 124.904C61.7918 124.18 61.9295 123.562 62.2048 123.049C62.4848 122.531 62.8511 122.134 63.3038 121.859C63.7565 121.583 64.2418 121.446 64.7598 121.446C65.1051 121.446 65.4178 121.497 65.6978 121.6C65.9825 121.698 66.2321 121.838 66.4468 122.02C66.6661 122.197 66.8528 122.405 67.0068 122.643C67.1608 122.876 67.2798 123.128 67.3638 123.399L66.5168 123.525C66.3815 123.095 66.1598 122.759 65.8518 122.517C65.5438 122.274 65.1751 122.153 64.7458 122.153C64.3818 122.153 64.0388 122.258 63.7168 122.468C63.3995 122.678 63.1405 122.988 62.9398 123.399C62.7391 123.805 62.6388 124.306 62.6388 124.904C62.6388 125.445 62.7275 125.926 62.9048 126.346C63.0868 126.761 63.3365 127.088 63.6538 127.326C63.9711 127.559 64.3351 127.676 64.7458 127.676C65.3105 127.676 65.7468 127.536 66.0548 127.256C66.3628 126.976 66.5168 126.581 66.5168 126.073H67.3638C67.3638 126.53 67.2541 126.934 67.0348 127.284C66.8155 127.634 66.5098 127.907 66.1178 128.103C65.7258 128.299 65.2731 128.397 64.7598 128.397ZM63.4088 130.686L63.5768 130.287C63.9361 130.487 64.2605 130.602 64.5498 130.63C64.8438 130.658 65.0771 130.62 65.2498 130.518C65.4271 130.42 65.5205 130.284 65.5298 130.112C65.5438 129.934 65.4738 129.78 65.3198 129.65C65.1658 129.519 64.9745 129.409 64.7458 129.321C64.5218 129.232 64.3025 129.164 64.0878 129.118L64.5638 127.921L65.1378 127.956L64.6828 129.097L64.4098 128.712C64.8158 128.814 65.1611 128.931 65.4458 129.062C65.7351 129.197 65.9521 129.351 66.0968 129.524C66.2461 129.701 66.3115 129.906 66.2928 130.14C66.2741 130.406 66.1621 130.616 65.9568 130.77C65.7515 130.928 65.4971 131.031 65.1938 131.078C64.8905 131.124 64.5778 131.115 64.2558 131.05C63.9385 130.984 63.6561 130.863 63.4088 130.686ZM71.9389 128.397C71.3462 128.397 70.8235 128.264 70.3709 127.998C69.9182 127.732 69.5612 127.34 69.2999 126.822C69.0432 126.304 68.9149 125.669 68.9149 124.918C68.9149 124.166 69.0432 123.534 69.2999 123.021C69.5612 122.503 69.9182 122.111 70.3709 121.845C70.8235 121.579 71.3462 121.446 71.9389 121.446C72.5315 121.446 73.0542 121.579 73.5069 121.845C73.9595 122.111 74.3142 122.503 74.5709 123.021C74.8275 123.534 74.9559 124.166 74.9559 124.918C74.9559 125.669 74.8275 126.304 74.5709 126.822C74.3142 127.34 73.9595 127.732 73.5069 127.998C73.0542 128.264 72.5315 128.397 71.9389 128.397ZM71.9249 127.69C72.4149 127.69 72.8232 127.575 73.1499 127.347C73.4765 127.113 73.7192 126.789 73.8779 126.374C74.0412 125.958 74.1229 125.473 74.1229 124.918C74.1229 124.082 73.9432 123.41 73.5839 122.902C73.2292 122.393 72.6855 122.139 71.9529 122.139C71.4629 122.139 71.0545 122.255 70.7279 122.489C70.4059 122.717 70.1632 123.042 69.9999 123.462C69.8412 123.877 69.7619 124.362 69.7619 124.918C69.7619 125.748 69.9392 126.418 70.2939 126.927C70.6532 127.435 71.1969 127.69 71.9249 127.69ZM82.6996 128.397C82.1723 128.397 81.6846 128.254 81.2366 127.97C80.7933 127.68 80.4386 127.274 80.1726 126.752C79.9066 126.229 79.7736 125.611 79.7736 124.897C79.7736 124.183 79.9043 123.569 80.1656 123.056C80.4316 122.538 80.7816 122.141 81.2156 121.866C81.6543 121.586 82.1326 121.446 82.6506 121.446C83.1313 121.446 83.5583 121.565 83.9316 121.803C84.3049 122.036 84.5966 122.372 84.8066 122.811C85.0166 123.245 85.1216 123.767 85.1216 124.379H84.7506C84.7506 123.889 84.6549 123.48 84.4636 123.154C84.2769 122.822 84.0319 122.573 83.7286 122.405C83.4253 122.237 83.1009 122.153 82.7556 122.153C82.3776 122.153 82.0253 122.262 81.6986 122.482C81.3766 122.701 81.1153 123.014 80.9146 123.42C80.7186 123.826 80.6206 124.318 80.6206 124.897C80.6206 125.48 80.7186 125.979 80.9146 126.395C81.1106 126.81 81.3719 127.127 81.6986 127.347C82.0253 127.566 82.3799 127.676 82.7626 127.676C83.0893 127.676 83.4043 127.592 83.7076 127.424C84.0109 127.256 84.2606 127.008 84.4566 126.682C84.6526 126.35 84.7506 125.944 84.7506 125.464H85.1216C85.1216 126.08 85.0143 126.607 84.7996 127.046C84.5896 127.484 84.3003 127.82 83.9316 128.054C83.5676 128.282 83.1569 128.397 82.6996 128.397ZM84.8696 128.243L84.7506 126.731V118.723H85.5556V128.243H84.8696ZM90.729 128.397C90.1504 128.397 89.6394 128.25 89.196 127.956C88.7574 127.657 88.412 127.249 88.16 126.731C87.908 126.208 87.782 125.613 87.782 124.946C87.782 124.218 87.9057 123.592 88.153 123.07C88.405 122.547 88.7504 122.146 89.189 121.866C89.6324 121.586 90.1457 121.446 90.729 121.446C91.219 121.446 91.6344 121.546 91.975 121.747C92.3204 121.943 92.598 122.211 92.808 122.552C93.018 122.892 93.165 123.277 93.249 123.707C93.3377 124.136 93.3727 124.579 93.354 125.037H88.447V124.477H92.857L92.535 124.687C92.549 124.383 92.5304 124.082 92.479 123.784C92.4324 123.48 92.3414 123.203 92.206 122.951C92.0754 122.699 91.891 122.496 91.653 122.342C91.415 122.188 91.1094 122.111 90.736 122.111C90.26 122.111 89.8634 122.234 89.546 122.482C89.2287 122.724 88.9907 123.042 88.832 123.434C88.678 123.821 88.601 124.236 88.601 124.68V125.023C88.601 125.531 88.678 125.989 88.832 126.395C88.9907 126.801 89.2264 127.123 89.539 127.361C89.8564 127.599 90.253 127.718 90.729 127.718C91.219 127.718 91.618 127.599 91.926 127.361C92.2387 127.118 92.4254 126.763 92.486 126.297H93.354C93.284 126.74 93.1277 127.118 92.885 127.431C92.647 127.743 92.3437 127.984 91.975 128.152C91.6064 128.315 91.191 128.397 90.729 128.397ZM101.031 128.397C100.513 128.397 100.028 128.254 99.5753 127.97C99.1226 127.685 98.7563 127.281 98.4763 126.759C98.201 126.236 98.0633 125.618 98.0633 124.904C98.0633 124.18 98.201 123.562 98.4763 123.049C98.7563 122.531 99.1226 122.134 99.5753 121.859C100.028 121.583 100.513 121.446 101.031 121.446C101.377 121.446 101.689 121.497 101.969 121.6C102.254 121.698 102.504 121.838 102.718 122.02C102.938 122.197 103.124 122.405 103.278 122.643C103.432 122.876 103.551 123.128 103.635 123.399L102.788 123.525C102.653 123.095 102.431 122.759 102.123 122.517C101.815 122.274 101.447 122.153 101.017 122.153C100.653 122.153 100.31 122.258 99.9883 122.468C99.671 122.678 99.412 122.988 99.2113 123.399C99.0106 123.805 98.9103 124.306 98.9103 124.904C98.9103 125.445 98.999 125.926 99.1763 126.346C99.3583 126.761 99.608 127.088 99.9253 127.326C100.243 127.559 100.607 127.676 101.017 127.676C101.582 127.676 102.018 127.536 102.326 127.256C102.634 126.976 102.788 126.581 102.788 126.073H103.635C103.635 126.53 103.526 126.934 103.306 127.284C103.087 127.634 102.781 127.907 102.389 128.103C101.997 128.299 101.545 128.397 101.031 128.397ZM108.21 128.397C107.618 128.397 107.095 128.264 106.642 127.998C106.19 127.732 105.833 127.34 105.571 126.822C105.315 126.304 105.186 125.669 105.186 124.918C105.186 124.166 105.315 123.534 105.571 123.021C105.833 122.503 106.19 122.111 106.642 121.845C107.095 121.579 107.618 121.446 108.21 121.446C108.803 121.446 109.326 121.579 109.778 121.845C110.231 122.111 110.586 122.503 110.842 123.021C111.099 123.534 111.227 124.166 111.227 124.918C111.227 125.669 111.099 126.304 110.842 126.822C110.586 127.34 110.231 127.732 109.778 127.998C109.326 128.264 108.803 128.397 108.21 128.397ZM108.196 127.69C108.686 127.69 109.095 127.575 109.421 127.347C109.748 127.113 109.991 126.789 110.149 126.374C110.313 125.958 110.394 125.473 110.394 124.918C110.394 124.082 110.215 123.41 109.855 122.902C109.501 122.393 108.957 122.139 108.224 122.139C107.734 122.139 107.326 122.255 106.999 122.489C106.677 122.717 106.435 123.042 106.271 123.462C106.113 123.877 106.033 124.362 106.033 124.918C106.033 125.748 106.211 126.418 106.565 126.927C106.925 127.435 107.468 127.69 108.196 127.69ZM122.919 128.243V124.33C122.919 123.625 122.751 123.086 122.415 122.713C122.079 122.339 121.62 122.153 121.036 122.153C120.374 122.153 119.872 122.405 119.531 122.909C119.191 123.408 119.02 124.075 119.02 124.911H118.607C118.607 124.365 118.663 123.877 118.775 123.448C118.887 123.014 119.053 122.65 119.272 122.356C119.492 122.057 119.762 121.831 120.084 121.677C120.411 121.523 120.787 121.446 121.211 121.446C121.725 121.446 122.168 121.56 122.541 121.789C122.919 122.017 123.211 122.349 123.416 122.783C123.622 123.212 123.724 123.728 123.724 124.33V128.243H122.919ZM113.42 128.243V121.6H114.106L114.204 123.035C114.405 122.535 114.699 122.146 115.086 121.866C115.474 121.586 115.947 121.446 116.507 121.446C117.021 121.446 117.464 121.56 117.837 121.789C118.215 122.017 118.507 122.349 118.712 122.783C118.918 123.212 119.02 123.728 119.02 124.33V128.243H118.229V124.33C118.229 123.625 118.059 123.086 117.718 122.713C117.382 122.339 116.918 122.153 116.325 122.153C115.891 122.153 115.516 122.272 115.198 122.51C114.886 122.748 114.645 123.081 114.477 123.511C114.314 123.94 114.232 124.442 114.232 125.016V128.243H113.42ZM129.278 128.397C128.793 128.397 128.366 128.282 127.997 128.054C127.633 127.825 127.348 127.496 127.143 127.067C126.942 126.637 126.842 126.122 126.842 125.52H127.234C127.234 125.991 127.327 126.388 127.514 126.71C127.705 127.027 127.95 127.267 128.249 127.431C128.552 127.594 128.872 127.676 129.208 127.676C129.577 127.676 129.924 127.568 130.251 127.354C130.578 127.139 130.844 126.826 131.049 126.416C131.254 126 131.357 125.496 131.357 124.904C131.357 124.32 131.259 123.826 131.063 123.42C130.867 123.009 130.606 122.696 130.279 122.482C129.957 122.262 129.602 122.153 129.215 122.153C128.879 122.153 128.559 122.237 128.256 122.405C127.953 122.573 127.705 122.82 127.514 123.147C127.327 123.469 127.234 123.87 127.234 124.351H126.842C126.842 123.735 126.947 123.21 127.157 122.776C127.372 122.342 127.663 122.013 128.032 121.789C128.401 121.56 128.818 121.446 129.285 121.446C129.803 121.446 130.284 121.586 130.727 121.866C131.17 122.141 131.527 122.538 131.798 123.056C132.069 123.569 132.204 124.185 132.204 124.904C132.204 125.632 132.066 126.257 131.791 126.78C131.52 127.302 131.161 127.704 130.713 127.984C130.27 128.259 129.791 128.397 129.278 128.397ZM126.422 131.519V121.6H127.108L127.234 123.112V131.519H126.422ZM134.434 128.243V121.593H135.246V128.243H134.434ZM134.945 125.198C134.945 124.367 135.017 123.676 135.162 123.126C135.307 122.575 135.531 122.162 135.834 121.887C136.137 121.611 136.525 121.474 136.996 121.474C137.159 121.474 137.309 121.485 137.444 121.509C137.584 121.532 137.724 121.569 137.864 121.621L137.773 122.412C137.638 122.36 137.488 122.318 137.325 122.286C137.162 122.248 137.019 122.23 136.898 122.23C136.483 122.23 136.154 122.356 135.911 122.608C135.673 122.86 135.503 123.21 135.4 123.658C135.297 124.101 135.246 124.614 135.246 125.198H134.945ZM143.327 128.243L143.222 126.864V123.924C143.222 123.256 143.077 122.783 142.788 122.503C142.498 122.223 142.085 122.083 141.549 122.083C141.25 122.083 140.972 122.127 140.716 122.216C140.459 122.3 140.254 122.437 140.1 122.629C139.946 122.815 139.869 123.063 139.869 123.371H138.945C138.945 122.899 139.061 122.524 139.295 122.244C139.528 121.959 139.841 121.756 140.233 121.635C140.629 121.509 141.068 121.446 141.549 121.446C142.025 121.446 142.449 121.53 142.823 121.698C143.196 121.861 143.49 122.127 143.705 122.496C143.924 122.86 144.034 123.34 144.034 123.938V128.243H143.327ZM141.017 128.397C140.485 128.397 140.046 128.301 139.701 128.11C139.355 127.914 139.099 127.664 138.931 127.361C138.763 127.057 138.679 126.745 138.679 126.423C138.679 125.956 138.791 125.583 139.015 125.303C139.243 125.023 139.547 124.82 139.925 124.694C140.307 124.568 140.725 124.505 141.178 124.505C141.518 124.505 141.871 124.544 142.235 124.624C142.603 124.698 142.956 124.803 143.292 124.939V125.485C143.002 125.359 142.669 125.258 142.291 125.184C141.913 125.109 141.57 125.072 141.262 125.072C140.786 125.072 140.38 125.174 140.044 125.38C139.708 125.585 139.54 125.933 139.54 126.423C139.54 126.791 139.663 127.104 139.911 127.361C140.163 127.617 140.566 127.746 141.122 127.746C141.5 127.746 141.847 127.655 142.165 127.473C142.482 127.291 142.736 127.064 142.928 126.794C143.124 126.523 143.222 126.25 143.222 125.975H143.425C143.425 126.399 143.324 126.796 143.124 127.165C142.928 127.533 142.648 127.832 142.284 128.061C141.924 128.285 141.502 128.397 141.017 128.397ZM152.17 128.397C151.592 128.397 151.081 128.25 150.637 127.956C150.199 127.657 149.853 127.249 149.601 126.731C149.349 126.208 149.223 125.613 149.223 124.946C149.223 124.218 149.347 123.592 149.594 123.07C149.846 122.547 150.192 122.146 150.63 121.866C151.074 121.586 151.587 121.446 152.17 121.446C152.66 121.446 153.076 121.546 153.416 121.747C153.762 121.943 154.039 122.211 154.249 122.552C154.459 122.892 154.606 123.277 154.69 123.707C154.779 124.136 154.814 124.579 154.795 125.037H149.888V124.477H154.298L153.976 124.687C153.99 124.383 153.972 124.082 153.92 123.784C153.874 123.48 153.783 123.203 153.647 122.951C153.517 122.699 153.332 122.496 153.094 122.342C152.856 122.188 152.551 122.111 152.177 122.111C151.701 122.111 151.305 122.234 150.987 122.482C150.67 122.724 150.432 123.042 150.273 123.434C150.119 123.821 150.042 124.236 150.042 124.68V125.023C150.042 125.531 150.119 125.989 150.273 126.395C150.432 126.801 150.668 127.123 150.98 127.361C151.298 127.599 151.694 127.718 152.17 127.718C152.66 127.718 153.059 127.599 153.367 127.361C153.68 127.118 153.867 126.763 153.927 126.297H154.795C154.725 126.74 154.569 127.118 154.326 127.431C154.088 127.743 153.785 127.984 153.416 128.152C153.048 128.315 152.632 128.397 152.17 128.397ZM159.057 121.6H159.974L162.312 127.543H162.144L164.482 121.6H165.399L162.655 128.243H161.801L159.057 121.6ZM169.37 128.397C168.791 128.397 168.28 128.25 167.837 127.956C167.398 127.657 167.053 127.249 166.801 126.731C166.549 126.208 166.423 125.613 166.423 124.946C166.423 124.218 166.546 123.592 166.794 123.07C167.046 122.547 167.391 122.146 167.83 121.866C168.273 121.586 168.786 121.446 169.37 121.446C169.86 121.446 170.275 121.546 170.616 121.747C170.961 121.943 171.239 122.211 171.449 122.552C171.659 122.892 171.806 123.277 171.89 123.707C171.978 124.136 172.013 124.579 171.995 125.037H167.088V124.477H171.498L171.176 124.687C171.19 124.383 171.171 124.082 171.12 123.784C171.073 123.48 170.982 123.203 170.847 122.951C170.716 122.699 170.532 122.496 170.294 122.342C170.056 122.188 169.75 122.111 169.377 122.111C168.901 122.111 168.504 122.234 168.187 122.482C167.869 122.724 167.631 123.042 167.473 123.434C167.319 123.821 167.242 124.236 167.242 124.68V125.023C167.242 125.531 167.319 125.989 167.473 126.395C167.631 126.801 167.867 127.123 168.18 127.361C168.497 127.599 168.894 127.718 169.37 127.718C169.86 127.718 170.259 127.599 170.567 127.361C170.879 127.118 171.066 126.763 171.127 126.297H171.995C171.925 126.74 171.768 127.118 171.526 127.431C171.288 127.743 170.984 127.984 170.616 128.152C170.247 128.315 169.832 128.397 169.37 128.397ZM179.028 128.243V124.33C179.028 123.625 178.858 123.086 178.517 122.713C178.181 122.339 177.717 122.153 177.124 122.153C176.69 122.153 176.314 122.272 175.997 122.51C175.684 122.748 175.444 123.081 175.276 123.511C175.113 123.94 175.031 124.442 175.031 125.016H174.674C174.674 124.288 174.772 123.658 174.968 123.126C175.169 122.589 175.463 122.176 175.85 121.887C176.242 121.593 176.727 121.446 177.306 121.446C177.819 121.446 178.263 121.56 178.636 121.789C179.014 122.017 179.306 122.349 179.511 122.783C179.716 123.212 179.819 123.728 179.819 124.33V128.243H179.028ZM174.219 128.243V121.6H174.905L175.031 123.238V128.243H174.219ZM184.87 128.397C184.342 128.397 183.855 128.254 183.407 127.97C182.963 127.68 182.609 127.274 182.343 126.752C182.077 126.229 181.944 125.611 181.944 124.897C181.944 124.183 182.074 123.569 182.336 123.056C182.602 122.538 182.952 122.141 183.386 121.866C183.824 121.586 184.303 121.446 184.821 121.446C185.301 121.446 185.728 121.565 186.102 121.803C186.475 122.036 186.767 122.372 186.977 122.811C187.187 123.245 187.292 123.767 187.292 124.379H186.921C186.921 123.889 186.825 123.48 186.634 123.154C186.447 122.822 186.202 122.573 185.899 122.405C185.595 122.237 185.271 122.153 184.926 122.153C184.548 122.153 184.195 122.262 183.869 122.482C183.547 122.701 183.285 123.014 183.085 123.42C182.889 123.826 182.791 124.318 182.791 124.897C182.791 125.48 182.889 125.979 183.085 126.395C183.281 126.81 183.542 127.127 183.869 127.347C184.195 127.566 184.55 127.676 184.933 127.676C185.259 127.676 185.574 127.592 185.878 127.424C186.181 127.256 186.431 127.008 186.627 126.682C186.823 126.35 186.921 125.944 186.921 125.464H187.292C187.292 126.08 187.184 126.607 186.97 127.046C186.76 127.484 186.47 127.82 186.102 128.054C185.738 128.282 185.327 128.397 184.87 128.397ZM187.04 128.243L186.921 126.731V118.723H187.726V128.243H187.04ZM194.733 128.243L194.628 126.864V123.924C194.628 123.256 194.483 122.783 194.194 122.503C193.905 122.223 193.492 122.083 192.955 122.083C192.656 122.083 192.379 122.127 192.122 122.216C191.865 122.3 191.66 122.437 191.506 122.629C191.352 122.815 191.275 123.063 191.275 123.371H190.351C190.351 122.899 190.468 122.524 190.701 122.244C190.934 121.959 191.247 121.756 191.639 121.635C192.036 121.509 192.474 121.446 192.955 121.446C193.431 121.446 193.856 121.53 194.229 121.698C194.602 121.861 194.896 122.127 195.111 122.496C195.33 122.86 195.44 123.34 195.44 123.938V128.243H194.733ZM192.423 128.397C191.891 128.397 191.452 128.301 191.107 128.11C190.762 127.914 190.505 127.664 190.337 127.361C190.169 127.057 190.085 126.745 190.085 126.423C190.085 125.956 190.197 125.583 190.421 125.303C190.65 125.023 190.953 124.82 191.331 124.694C191.714 124.568 192.131 124.505 192.584 124.505C192.925 124.505 193.277 124.544 193.641 124.624C194.01 124.698 194.362 124.803 194.698 124.939V125.485C194.409 125.359 194.075 125.258 193.697 125.184C193.319 125.109 192.976 125.072 192.668 125.072C192.192 125.072 191.786 125.174 191.45 125.38C191.114 125.585 190.946 125.933 190.946 126.423C190.946 126.791 191.07 127.104 191.317 127.361C191.569 127.617 191.973 127.746 192.528 127.746C192.906 127.746 193.254 127.655 193.571 127.473C193.888 127.291 194.143 127.064 194.334 126.794C194.53 126.523 194.628 126.25 194.628 125.975H194.831C194.831 126.399 194.731 126.796 194.53 127.165C194.334 127.533 194.054 127.832 193.69 128.061C193.331 128.285 192.908 128.397 192.423 128.397Z" fill="#5F5B62"/>
</g>
<defs>
<filter id="filter0_d_694_1900" x="0" y="0" width="201" height="139.519" filterUnits="userSpaceOnUse" color-interpolation-filters="sRGB">
<feFlood flood-opacity="0" result="BackgroundImageFix"/>
<feColorMatrix in="SourceAlpha" type="matrix" values="0 0 0 0 0 0 0 0 0 0 0 0 0 0 0 0 0 0 127 0" result="hardAlpha"/>
<feOffset dy="4"/>
<feGaussianBlur stdDeviation="2"/>
<feComposite in2="hardAlpha" operator="out"/>
<feColorMatrix type="matrix" values="0 0 0 0 0 0 0 0 0 0 0 0 0 0 0 0 0 0 0.25 0"/>
<feBlend mode="normal" in2="BackgroundImageFix" result="effect1_dropShadow_694_1900"/>
<feBlend mode="normal" in="SourceGraphic" in2="effect1_dropShadow_694_1900" result="shape"/>
</filter>
</defs>
</svg>
